<svg xmlns="http://www.w3.org/2000/svg" version="1.1" viewBox="-5.0 -10.0 110.0 135.0">
 <path d="m18.949 7.5h-8.9492c-1.375 0-2.5 1.125-2.5 2.5v5c-1.375 0-2.5 1.125-2.5 2.5s1.125 2.5 2.5 2.5h5c1.375 0 2.5-1.125 2.5-2.5s-1.125-2.5-2.5-2.5v-2.5h5.4492l-7.5 37.5h-7.9492c-1.375 0-2.5 1.125-2.5 2.5s1.125 2.5 2.5 2.5v40c-1.375 0-2.5 1.125-2.5 2.5s1.125 2.5 2.5 2.5h95c1.375 0 2.5-1.125 2.5-2.5s-1.125-2.5-2.5-2.5h-10v-14.125l8.6992-10.875h1.3008c1.375 0 2.5-1.125 2.5-2.5v-2.5c0-1.375-1.125-2.5-2.5-2.5s-2.5 1.125-2.5 2.5h-7.5v-4.125l8.6992-10.875h1.3008c1.375 0 2.5-1.125 2.5-2.5v-2.5c0-1.375-1.125-2.5-2.5-2.5s-2.5 1.125-2.5 2.5h-7.5v-1.25c0-1.6484-0.64844-3.25-1.8242-4.4258s-2.75-1.8242-4.4258-1.8242c0 0-0.44922 0 0 0-1.6484 0-3.25 0.64844-4.4258 1.8242s-1.8242 2.75-1.8242 4.4258v1.25h-7.5c0-1.375-1.125-2.5-2.5-2.5s-2.5 1.125-2.5 2.5v2.5c0 1.375 1.125 2.5 2.5 2.5h1.3008l8.6992 10.875v4.125h-7.5c0-1.375-1.125-2.5-2.5-2.5s-2.5 1.125-2.5 2.5v2.5c0 1.375 1.125 2.5 2.5 2.5h1.3008l8.6992 10.875v14.125h-5v-15c0-1.375-1.125-2.5-2.5-2.5h-10v-22.5c1.375 0 2.5-1.125 2.5-2.5s-1.125-2.5-2.5-2.5h-7.9492l-7.5-37.5h5.4492v2.5c-1.375 0-2.5 1.125-2.5 2.5s1.125 2.5 2.5 2.5h5c1.375 0 2.5-1.125 2.5-2.5s-1.125-2.5-2.5-2.5v-5c0-1.375-1.125-2.5-2.5-2.5h-8.9492l-1.1016-5.5c-0.22656-1.1758-1.25-2-2.4492-2h-15c-1.1992 0-2.2266 0.85156-2.4492 2zm63.551 36.25v51.25h-2.5v-51.25c0-0.32422 0.125-0.64844 0.375-0.875 0.22656-0.22656 0.55078-0.375 0.875-0.375s0.64844 0.125 0.875 0.375c0.22656 0.22656 0.375 0.55078 0.375 0.875zm-25 38.75v12.5h7.5v-12.5zm-15-2.5v15h10v-40h-45v40h10v-15c-1.375 0-2.5-1.125-2.5-2.5s1.125-2.5 2.5-2.5h25c1.375 0 2.5 1.125 2.5 2.5s-1.125 2.5-2.5 2.5zm-20 0v15h5v-15zm10 0v15h5v-15zm40.199-10 2.3008 2.875v-2.875zm14.801 0v2.875l2.3008-2.875zm-37.5-10c0-1.375-1.125-2.5-2.5-2.5h-35c-1.375 0-2.5 1.125-2.5 2.5v7.5c0 1.375 1.125 2.5 2.5 2.5h35c1.375 0 2.5-1.125 2.5-2.5zm-30 2.5v2.5h-5v-2.5zm5 0v2.5h10v-2.5zm15 0h5v2.5h-5zm32.699-12.5 2.3008 2.875v-2.875zm14.801 0v2.875l2.3008-2.875zm-70.949-5-1 5h28.898l-1-5zm24.25-13.227-16.477 8.2266h18.102l-1.6484-8.2266zm-7.6484-1.7734h-13.602l-1.5234 7.5508zm4.1992-15.449-13.051 10.449h15.125zm-16 6.3984 10.574-8.4766h-8.875zm2.6992-13.477h11.898l-0.5-2.5h-10.898z" fill-rule="evenodd"/>
<text x="0.0" y="117.5" font-size="5.0" font-weight="bold" font-family="Arbeit Regular, Helvetica, Arial-Unicode, Arial, Sans-serif" fill="#ffffff">Created by Soni Sokell</text><text x="0.0" y="122.5" font-size="5.0" font-weight="bold" font-family="Arbeit Regular, Helvetica, Arial-Unicode, Arial, Sans-serif" fill="#ffffff">from Noun Project</text></svg>